# Blender v2.81 (sub 16) OBJ File: 'Off the rails assets.blend'
# www.blender.org
v -21.970806 0.000000 25.054276
v -9.244730 0.000000 25.054276
v -21.970806 0.000000 12.328201
v -9.244730 0.000000 12.328201
v -21.970806 28.906103 12.328201
v -21.970806 28.906103 25.054276
v -9.244730 28.906103 25.054276
v -9.244730 28.906103 12.328201
v -19.073410 36.274338 15.225595
v -19.073410 36.274338 22.156881
v -12.142125 36.274338 22.156881
v -12.142125 36.274338 15.225595
vt 0.000000 1.000000
vt 1.000000 0.000000
vt 0.000000 0.000000
vt 0.000000 1.000000
vt 1.000000 1.000000
vt 1.000000 1.000000
vt 1.000000 1.000000
vt 0.000000 0.000000
vt 1.000000 0.000000
vt 1.000000 0.000000
vt 0.000000 1.000000
vt 0.000000 0.000000
vn 0.0000 -1.0000 0.0000
vn 0.0000 0.3660 -0.9306
vn -1.0000 0.0000 0.0000
vn 0.0000 0.0000 -1.0000
vn 0.0000 0.0000 1.0000
vn 1.0000 0.0000 0.0000
vn 0.0000 1.0000 0.0000
vn 0.0000 0.3660 0.9306
vn 0.9306 0.3660 0.0000
vn -0.9306 0.3660 0.0000
s off
f 3/1/1 2/2/1 1/3/1
f 5/4/2 12/5/2 8/6/2
f 1/3/3 5/4/3 3/1/3
f 3/1/4 8/6/4 4/7/4
f 2/2/5 6/8/5 1/3/5
f 4/7/6 7/9/6 2/2/6
f 11/10/7 9/11/7 10/12/7
f 7/9/8 10/12/8 6/8/8
f 8/6/9 11/10/9 7/9/9
f 6/8/10 9/11/10 5/4/10
f 3/1/1 4/7/1 2/2/1
f 5/4/2 9/11/2 12/5/2
f 1/3/3 6/8/3 5/4/3
f 3/1/4 5/4/4 8/6/4
f 2/2/5 7/9/5 6/8/5
f 4/7/6 8/6/6 7/9/6
f 11/10/7 12/5/7 9/11/7
f 7/9/8 11/10/8 10/12/8
f 8/6/9 12/5/9 11/10/9
f 6/8/10 10/12/10 9/11/10
