# Blender v2.81 (sub 16) OBJ File: 'Off the rails assets.blend'
# www.blender.org
v -38.622307 0.000000 25.054276
v -25.896233 0.000000 25.054276
v -38.622307 0.000000 12.328201
v -25.896233 0.000000 12.328201
v -38.622307 28.906103 12.328201
v -38.622307 28.906103 25.054276
v -25.896233 28.906103 25.054276
v -25.896233 28.906103 12.328201
v -37.121254 28.906103 13.829252
v -37.121254 28.906103 23.553225
v -27.397284 28.906103 23.553225
v -27.397284 28.906103 13.829252
v -37.121254 46.024269 13.829252
v -37.121254 46.024269 23.553225
v -27.397284 46.024269 23.553225
v -27.397284 46.024269 13.829252
v -35.991158 46.024269 14.959352
v -35.991158 46.024269 22.423124
v -28.527384 46.024269 22.423124
v -28.527384 46.024269 14.959352
v -35.991158 59.515274 14.959352
v -35.991158 59.515274 22.423124
v -28.527384 59.515274 22.423124
v -28.527384 59.515274 14.959352
vt 0.000000 1.000000
vt 1.000000 0.000000
vt 0.000000 0.000000
vt 0.000000 1.000000
vt 1.000000 1.000000
vt 1.000000 1.000000
vt 0.000000 0.000000
vt 1.000000 0.000000
vt 0.000000 0.000000
vt 1.000000 1.000000
vt 1.000000 0.000000
vt 1.000000 0.000000
vt 0.000000 1.000000
vt 0.000000 1.000000
vt 1.000000 1.000000
vt 1.000000 1.000000
vt 0.000000 0.000000
vt 1.000000 0.000000
vt 1.000000 0.000000
vt 0.000000 0.000000
vt 0.000000 1.000000
vt 0.000000 0.000000
vt 1.000000 1.000000
vt 0.000000 1.000000
vn 0.0000 -1.0000 0.0000
vn -1.0000 0.0000 0.0000
vn 0.0000 0.0000 -1.0000
vn 0.0000 0.0000 1.0000
vn 1.0000 0.0000 0.0000
vn 0.0000 1.0000 0.0000
s off
f 3/1/1 2/2/1 1/3/1
f 1/3/2 5/4/2 3/1/2
f 3/1/3 8/5/3 4/6/3
f 2/2/4 6/7/4 1/3/4
f 4/6/5 7/8/5 2/2/5
f 7/8/6 10/9/6 6/7/6
f 12/10/5 15/11/5 11/12/5
f 8/5/6 11/12/6 7/8/6
f 6/7/6 9/13/6 5/4/6
f 5/4/6 12/10/6 8/5/6
f 13/14/6 20/15/6 16/16/6
f 10/9/2 13/14/2 9/13/2
f 9/13/3 16/16/3 12/10/3
f 11/12/4 14/17/4 10/9/4
f 20/15/5 23/18/5 19/19/5
f 15/11/6 18/20/6 14/17/6
f 16/16/6 19/19/6 15/11/6
f 14/17/6 17/21/6 13/14/6
f 22/22/6 24/23/6 21/24/6
f 18/20/2 21/24/2 17/21/2
f 17/21/3 24/23/3 20/15/3
f 19/19/4 22/22/4 18/20/4
f 3/1/1 4/6/1 2/2/1
f 1/3/2 6/7/2 5/4/2
f 3/1/3 5/4/3 8/5/3
f 2/2/4 7/8/4 6/7/4
f 4/6/5 8/5/5 7/8/5
f 7/8/6 11/12/6 10/9/6
f 12/10/5 16/16/5 15/11/5
f 8/5/6 12/10/6 11/12/6
f 6/7/6 10/9/6 9/13/6
f 5/4/6 9/13/6 12/10/6
f 13/14/6 17/21/6 20/15/6
f 10/9/2 14/17/2 13/14/2
f 9/13/3 13/14/3 16/16/3
f 11/12/4 15/11/4 14/17/4
f 20/15/5 24/23/5 23/18/5
f 15/11/6 19/19/6 18/20/6
f 16/16/6 20/15/6 19/19/6
f 14/17/6 18/20/6 17/21/6
f 22/22/6 23/18/6 24/23/6
f 18/20/2 22/22/2 21/24/2
f 17/21/3 21/24/3 24/23/3
f 19/19/4 23/18/4 22/22/4
