# Blender v2.81 (sub 16) OBJ File: 'Off the rails assets.blend'
# www.blender.org
v -54.887608 0.000000 25.054276
v -42.161533 0.000000 25.054276
v -54.887608 0.000000 12.328201
v -42.161533 0.000000 12.328201
v -54.887608 22.058716 12.328201
v -54.887608 22.058716 25.054276
v -42.161533 22.058716 25.054276
v -42.161533 22.058716 12.328201
v -54.887608 36.408878 20.941658
v -54.887608 36.408878 25.054276
v -42.161533 36.408878 25.054276
v -42.161533 36.408878 20.941658
vt 0.000000 1.000000
vt 1.000000 0.000000
vt 0.000000 0.000000
vt 0.000000 1.000000
vt 1.000000 1.000000
vt 1.000000 1.000000
vt 0.000000 0.000000
vt 1.000000 0.000000
vt 1.000000 1.000000
vt 0.000000 0.000000
vt 0.000000 1.000000
vt 1.000000 0.000000
vn 0.0000 -1.0000 0.0000
vn -1.0000 0.0000 0.0000
vn 0.0000 0.0000 -1.0000
vn 0.0000 0.0000 1.0000
vn 1.0000 0.0000 0.0000
vn 0.0000 0.5146 -0.8574
vn 0.0000 1.0000 0.0000
s off
f 3/1/1 2/2/1 1/3/1
f 1/3/2 5/4/2 3/1/2
f 3/1/3 8/5/3 4/6/3
f 2/2/4 6/7/4 1/3/4
f 4/6/5 7/8/5 2/2/5
f 5/4/6 12/9/6 8/5/6
f 10/10/7 12/9/7 9/11/7
f 7/8/4 10/10/4 6/7/4
f 7/8/5 12/9/5 11/12/5
f 6/7/2 9/11/2 5/4/2
f 3/1/1 4/6/1 2/2/1
f 1/3/2 6/7/2 5/4/2
f 3/1/3 5/4/3 8/5/3
f 2/2/4 7/8/4 6/7/4
f 4/6/5 8/5/5 7/8/5
f 5/4/6 9/11/6 12/9/6
f 10/10/7 11/12/7 12/9/7
f 7/8/4 11/12/4 10/10/4
f 7/8/5 8/5/5 12/9/5
f 6/7/2 10/10/2 9/11/2
